<svg width="1920" height="1080" viewBox="0 0 1920 1080" xmlns="http://www.w3.org/2000/svg"><rect width="1920" height="1080" fill="#1da3dd"/><path d="M 0,1080 C 0,1080 0,180 0,180 C 101.85128205128208,195.34871794871793 203.70256410256417,210.6974358974359 323,198 C 442.29743589743583,185.3025641025641 579.0410256410256,144.55897435897435 677,133 C 774.9589743589744,121.44102564102565 834.1333333333334,139.0666666666667 922,158 C 1009.8666666666666,176.9333333333333 1126.425641025641,197.17435897435897 1238,201 C 1349.574358974359,204.82564102564103 1456.1641025641027,192.23589743589744 1569,186 C 1681.8358974358973,179.76410256410256 1800.9179487179485,179.8820512820513 1920,180 C 1920,180 1920,1080 1920,1080 Z" fill="#fdfcfc" opacity="0.09999999999999999"/><path d="M 0,1080 C 0,1080 0,360 0,360 C 87.48717948717947,359.31538461538463 174.97435897435895,358.63076923076926 283,371 C 391.02564102564105,383.36923076923074 519.5897435897435,408.79230769230765 622,406 C 724.4102564102565,403.20769230769235 800.6666666666667,372.2 915,362 C 1029.3333333333333,351.8 1181.7435897435898,362.4076923076923 1298,363 C 1414.2564102564102,363.5923076923077 1494.3589743589744,354.1692307692308 1592,352 C 1689.6410256410256,349.8307692307692 1804.8205128205127,354.9153846153846 1920,360 C 1920,360 1920,1080 1920,1080 Z" fill="#fdfcfc" opacity="0.19999999999999998"/><path d="M 0,1080 C 0,1080 0,540 0,540 C 133.9102564102564,583.1794871794872 267.8205128205128,626.3589743589744 361,604 C 454.1794871794872,581.6410256410256 506.6282051282052,493.7435897435898 615,474 C 723.3717948717948,454.2564102564102 887.6666666666667,502.66666666666674 1009,533 C 1130.3333333333333,563.3333333333333 1208.7051282051282,575.5897435897435 1290,560 C 1371.2948717948718,544.4102564102565 1455.5128205128206,500.97435897435895 1561,493 C 1666.4871794871794,485.02564102564105 1793.2435897435898,512.5128205128206 1920,540 C 1920,540 1920,1080 1920,1080 Z" fill="#fdfcfc" opacity="0.3"/><path d="M 0,1080 C 0,1080 0,720 0,720 C 93.21282051282054,726.3230769230769 186.42564102564108,732.6461538461538 287,741 C 387.5743589743589,749.3538461538462 495.5102564102564,759.7384615384616 600,745 C 704.4897435897436,730.2615384615384 805.5333333333335,690.4 915,695 C 1024.4666666666665,699.6 1142.35641025641,748.6615384615386 1271,751 C 1399.64358974359,753.3384615384614 1539.0410256410257,708.9538461538461 1649,696 C 1758.9589743589743,683.0461538461539 1839.479487179487,701.5230769230769 1920,720 C 1920,720 1920,1080 1920,1080 Z" fill="#fdfcfc" opacity="0.39999999999999997"/><path d="M 0,1080 C 0,1080 0,900 0,900 C 106.73846153846151,930.8794871794871 213.47692307692301,961.7589743589743 315,964 C 416.523076923077,966.2410256410257 512.8307692307693,939.8435897435897 638,934 C 763.1692307692307,928.1564102564103 917.1999999999998,942.8666666666667 1009,946 C 1100.8000000000002,949.1333333333333 1130.3692307692306,940.6897435897437 1228,940 C 1325.6307692307694,939.3102564102563 1491.323076923077,946.374358974359 1618,941 C 1744.676923076923,935.625641025641 1832.3384615384616,917.8128205128205 1920,900 C 1920,900 1920,1080 1920,1080 Z" fill="#fdfcfc" opacity="0.49999999999999994"/></svg>